<?xml version="1.0" encoding="UTF-8" standalone="no"?>
<svg
   viewBox="0 0 512 512"
   width="512"
   height="512"
   version="1.1"
   id="svg6"
   sodipodi:docname="fastaction.svg"
   inkscape:version="1.1 (c68e22c387, 2021-05-23)"
   xmlns:inkscape="http://www.inkscape.org/namespaces/inkscape"
   xmlns:sodipodi="http://sodipodi.sourceforge.net/DTD/sodipodi-0.dtd"
   xmlns="http://www.w3.org/2000/svg"
   xmlns:svg="http://www.w3.org/2000/svg">
  <defs
     id="defs10" />
  <sodipodi:namedview
     id="namedview8"
     pagecolor="#ffffff"
     bordercolor="#666666"
     borderopacity="1.0"
     inkscape:pageshadow="2"
     inkscape:pageopacity="0.0"
     inkscape:pagecheckerboard="0"
     showgrid="false"
     inkscape:zoom="1.625"
     inkscape:cx="255.69231"
     inkscape:cy="236.61538"
     inkscape:window-width="1920"
     inkscape:window-height="1017"
     inkscape:window-x="1912"
     inkscape:window-y="-8"
     inkscape:window-maximized="1"
     inkscape:current-layer="svg6" />
  <g
     transform="translate(3.0670722,-7.4039875)"
     id="g25"
     style="fill:#ffffff">
    <path
       d="m 44.62,106 a 26,26 0 0 0 -25.69,29.3 c 16,124 16,117.4 0,241.4 A 26,26 0 0 0 54.72,404 L 193.4,346.3 c -1.2,9.5 -2.4,18.9 -3.9,30.4 -2.5,19.8 17.3,35 35.8,27.3 l 252,-124 c 9.7,-4 16,-13.5 16,-24 0,-10.5 -6.3,-20 -16,-24 l -252,-124 c -3.2,-1.3 -6.6,-2 -10.1,-2 -15.6,0.1 -27.7,13.8 -25.7,29.3 1.5,11.5 2.7,20.9 3.9,30.4 L 54.72,108 a 26,26 0 0 0 -10.1,-2 z"
       fill="#ffffff"
       fill-opacity="1"
       id="path23"
       style="fill:#ffffff" />
  </g>
</svg>
